<?xml version="1.0" encoding="utf-8"?>
<!-- Generator: Adobe Illustrator 27.0.0, SVG Export Plug-In . SVG Version: 6.00 Build 0)  -->
<svg version="1.1" id="Layer_1" xmlns="http://www.w3.org/2000/svg" xmlns:xlink="http://www.w3.org/1999/xlink" x="0px" y="0px"
	 viewBox="0 0 907.1 677.5" style="enable-background:new 0 0 907.1 677.5;" xml:space="preserve">
<style type="text/css">
	.st0{fill:none;stroke:#FF0000;stroke-width:0.5;stroke-linecap:round;stroke-miterlimit:11.3386;}
	.st1{font-family:'ArialMT';}
	.st2{font-size:26.4459px;}
	.st3{fill:none;stroke:#ED1C24;stroke-width:0.5;stroke-linecap:round;stroke-miterlimit:11.3386;}
	.st4{fill:none;stroke:#FF0000;stroke-width:0.5;stroke-linejoin:round;}
	.st5{fill:none;stroke:#FF0000;stroke-width:0.5;}
	.st6{font-family:'ComicSansMS';}
	.st7{font-size:61.8278px;}
</style>
<g id="svgGroup">
	<path id="front_outsideCutPath" vector-effect="non-scaling-stroke" class="st0" d="M0,456.4v71.3h11.3v78.6H0v71.3h99.6v-11.3
		h78.6v11.3h78.6h21v-71.3h-11.3v-78.6h11.3v-71.3h-99.6v11.3H99.6v-11.3H21L0,456.4L0,456.4z"/>
	<path id="left_outsideCutPath" vector-effect="non-scaling-stroke" class="st0" d="M297.6,456.4v71.3h-11.3v78.6h11.3v71.3h38
		v-11.3h78.6v11.3h78.6v-11.3h78.6v11.3h38v-71.3h11.3v-78.6h-11.3v-71.3h-38v11.3h-78.6v-11.3h-78.6v11.3h-78.6v-11.3L297.6,456.4
		L297.6,456.4z"/>
	<path id="top_outsideCutPath" vector-effect="non-scaling-stroke" class="st0" d="M640.6,354.3v38h-11.3v78.6h11.3v78.6h-11.3v78.6
		h11.3v38h88.3v11.3h78.6v-11.3h78.6h9.7v-38h11.3v-78.6h-11.3v-78.6h11.3v-78.6h-11.3v-38h-88.3V343h-78.6v11.3h-78.6H640.6z"/>
	<path id="back_outsideCutPath" vector-effect="non-scaling-stroke" class="st0" d="M0,226.8V298h11.3v78.6H0v71.3h99.6v-11.3h78.6
		v11.3h78.6h21v-71.3h-11.3V298h11.3v-71.3h-99.6V238H99.6v-11.3H21H0V226.8z"/>
	<path id="right_outsideCutPath" vector-effect="non-scaling-stroke" class="st0" d="M297.6,226.8V298h-11.3v78.6h11.3v71.3h38
		v-11.3h78.6v11.3h78.6v-11.3h78.6v11.3h38v-71.3h11.3V298h-11.3v-71.3h-38V238h-78.6v-11.3h-78.6V238h-78.6v-11.3h-38V226.8z"/>
	<path id="bottom_outsideCutPath" vector-effect="non-scaling-stroke" class="st0" d="M640.6,11.3v38h-11.3V128h11.3v78.6h-11.3
		v78.6h11.3v38h88.3v11.3h78.6v-11.3h78.6h9.7v-38h11.3v-78.6h-11.3V128h11.3V49.4h-11.3v-38h-88.3V0h-78.6v11.3h-78.6H640.6z"/>
</g>
<text transform="matrix(1 0 0 1 23 33.0898)" class="st1 st2">width 90 </text>
<text transform="matrix(1 0 0 1 23 64.7898)" class="st1 st2">height 70 </text>
<text transform="matrix(1 0 0 1 23 96.5898)" class="st1 st2">deph 110</text>
<ellipse class="st3" cx="861.9" cy="560.1" rx="5.5" ry="11.5"/>
<ellipse class="st3" cx="768.1" cy="634.7" rx="78.2" ry="15.3"/>
<ellipse class="st3" cx="768.1" cy="589.7" rx="78.2" ry="15.3"/>
<ellipse class="st3" cx="768.1" cy="541.3" rx="78.2" ry="15.3"/>
<ellipse class="st3" cx="674.4" cy="562.9" rx="5.5" ry="11.5"/>
<rect x="659.1" y="381.1" class="st3" width="141.7" height="13.8"/>
<ellipse class="st3" cx="768.1" cy="492.9" rx="78.2" ry="15.3"/>
<g id="g4526">
	<path id="rect3190-2" class="st4" d="M442.5,592.4h47.9c0.8,0,1.4,0.7,1.4,1.6v47.7c0,0.9-0.6,1.6-1.4,1.6h-47.9
		c-0.8,0-1.4-0.7-1.4-1.6V594C441.1,593.1,441.7,592.4,442.5,592.4z"/>
	<path id="rect3192-1" class="st4" d="M499.3,581h42c1.6,0,2.9,1.6,2.9,3.4v55.7c0,2-1.3,3.4-2.9,3.4h-42c-1.6,0-2.9-1.6-2.9-3.4
		v-55.7C496.5,582.5,497.7,581,499.3,581z"/>
	<path id="rect3965" class="st4" d="M550.8,581h40.5c1.6,0,2.8,1.6,2.8,3.4v55.7c0,2-1.3,3.4-2.8,3.4h-40.5c-1.6,0-2.8-1.6-2.8-3.4
		v-55.7C548,582.5,549.3,581,550.8,581z"/>
</g>
<path id="path3755" class="st5" d="M825.7,172.7c0,2.1-1.7,3.8-3.8,3.8s-3.8-1.7-3.8-3.8s1.7-3.8,3.8-3.8S825.7,170.6,825.7,172.7z"
	/>
<path id="path3755-9" class="st5" d="M825.7,312.2c0,2.1-1.7,3.8-3.8,3.8s-3.8-1.7-3.8-3.8c0-2.1,1.7-3.8,3.8-3.8
	C824,308.4,825.7,310.1,825.7,312.2z"/>
<path id="path3755-6" class="st5" d="M659.3,312.2c0,2.1-1.7,3.8-3.8,3.8s-3.8-1.7-3.8-3.8c0-2.1,1.7-3.8,3.8-3.8
	C657.6,308.4,659.3,310.1,659.3,312.2z"/>
<path id="path3755-8" class="st5" d="M659.3,172.7c0,2.1-1.7,3.8-3.8,3.8s-3.8-1.7-3.8-3.8s1.7-3.8,3.8-3.8S659.3,170.6,659.3,172.7
	z"/>
<rect x="215.8" y="258.8" class="st5" width="34" height="34"/>
<rect x="338.6" y="444.1" class="st5" width="71.8" height="16.9"/>
<path class="st5" d="M51.1,643.8L51.1,643.8c-17.1-9.3-17.1-32.8,0-42l0,0c3.8-2,8.1-3.1,12.4-3.1h76.4c4.3,0,8.7,1.1,12.4,3.1l0,0
	c17.1,9.3,17.1,32.8,0,42l0,0c-3.8,2-8.1,3.1-12.4,3.1H63.7C59.2,646.9,55,645.8,51.1,643.8z"/>
<text transform="matrix(1 0 0 1 35.4002 566.9288)" class="st6 st7">KatBot</text>
<circle class="st5" cx="558.1" cy="274.4" r="7.1"/>
<circle class="st5" cx="558.1" cy="388" r="7.1"/>
<circle class="st5" cx="434" cy="274.4" r="7.1"/>
<circle class="st5" cx="434" cy="388" r="7.1"/>
<path id="back_outsideCutPath_00000016057109460982203590000007273049424425535393_" vector-effect="non-scaling-stroke" class="st0" d="
	M346.9,2.6v71.2h11.3v78.6h-11.3v71.3h99.6v-11.3h78.6v11.3h78.6h21v-71.3h-11.3V73.8h11.3V2.5h-99.6v11.3h-78.6V2.5h-78.6h-21V2.6z
	"/>
<circle class="st5" cx="401.3" cy="57.3" r="22.7"/>
</svg>
